<?xml version="1.0" encoding="utf-8" standalone="no"?>
<!DOCTYPE svg PUBLIC "-//W3C//DTD SVG 1.1//EN"
  "http://www.w3.org/Graphics/SVG/1.1/DTD/svg11.dtd">
<!-- Created with matplotlib (http://matplotlib.org/) -->
<svg height="345.6pt" version="1.1" viewBox="0 0 460.8 345.6" width="460.8pt" xmlns="http://www.w3.org/2000/svg" xmlns:xlink="http://www.w3.org/1999/xlink">
 <defs>
  <style type="text/css">
*{stroke-linecap:butt;stroke-linejoin:round;}
  </style>
 </defs>
 <g id="figure_1">
  <g id="patch_1">
   <path d="M 0 345.6 
L 460.8 345.6 
L 460.8 0 
L 0 0 
z
" style="fill:#ffffff;"/>
  </g>
  <g id="axes_1">
   <g id="patch_2">
    <path d="M 57.6 119.740235 
L 414.72 119.740235 
L 414.72 41.472 
L 57.6 41.472 
z
" style="fill:#ffffff;"/>
   </g>
   <g id="matplotlib.axis_1">
    <g id="xtick_1">
     <g id="line2d_1">
      <defs>
       <path d="M 0 0 
L 0 3.5 
" id="m407633620f" style="stroke:#000000;stroke-width:0.8;"/>
      </defs>
      <g>
       <use style="stroke:#000000;stroke-width:0.8;" x="57.6" xlink:href="#m407633620f" y="119.740235"/>
      </g>
     </g>
    </g>
    <g id="xtick_2">
     <g id="line2d_2">
      <g>
       <use style="stroke:#000000;stroke-width:0.8;" x="113.4" xlink:href="#m407633620f" y="119.740235"/>
      </g>
     </g>
    </g>
    <g id="xtick_3">
     <g id="line2d_3">
      <g>
       <use style="stroke:#000000;stroke-width:0.8;" x="169.2" xlink:href="#m407633620f" y="119.740235"/>
      </g>
     </g>
    </g>
    <g id="xtick_4">
     <g id="line2d_4">
      <g>
       <use style="stroke:#000000;stroke-width:0.8;" x="225" xlink:href="#m407633620f" y="119.740235"/>
      </g>
     </g>
    </g>
    <g id="xtick_5">
     <g id="line2d_5">
      <g>
       <use style="stroke:#000000;stroke-width:0.8;" x="280.8" xlink:href="#m407633620f" y="119.740235"/>
      </g>
     </g>
    </g>
    <g id="xtick_6">
     <g id="line2d_6">
      <g>
       <use style="stroke:#000000;stroke-width:0.8;" x="336.6" xlink:href="#m407633620f" y="119.740235"/>
      </g>
     </g>
    </g>
    <g id="xtick_7">
     <g id="line2d_7">
      <g>
       <use style="stroke:#000000;stroke-width:0.8;" x="392.4" xlink:href="#m407633620f" y="119.740235"/>
      </g>
     </g>
    </g>
   </g>
   <g id="matplotlib.axis_2">
    <g id="ytick_1">
     <g id="line2d_8">
      <defs>
       <path d="M 0 0 
L -3.5 0 
" id="m02ab4f7838" style="stroke:#000000;stroke-width:0.8;"/>
      </defs>
      <g>
       <use style="stroke:#000000;stroke-width:0.8;" x="57.6" xlink:href="#m02ab4f7838" y="113.226989"/>
      </g>
     </g>
     <g id="text_1">
      <!-- −0.5 -->
      <defs>
       <path d="M 10.59375 35.5 
L 73.1875 35.5 
L 73.1875 27.203125 
L 10.59375 27.203125 
z
" id="DejaVuSans-2212"/>
       <path d="M 31.78125 66.40625 
Q 24.171875 66.40625 20.328125 58.90625 
Q 16.5 51.421875 16.5 36.375 
Q 16.5 21.390625 20.328125 13.890625 
Q 24.171875 6.390625 31.78125 6.390625 
Q 39.453125 6.390625 43.28125 13.890625 
Q 47.125 21.390625 47.125 36.375 
Q 47.125 51.421875 43.28125 58.90625 
Q 39.453125 66.40625 31.78125 66.40625 
z
M 31.78125 74.21875 
Q 44.046875 74.21875 50.515625 64.515625 
Q 56.984375 54.828125 56.984375 36.375 
Q 56.984375 17.96875 50.515625 8.265625 
Q 44.046875 -1.421875 31.78125 -1.421875 
Q 19.53125 -1.421875 13.0625 8.265625 
Q 6.59375 17.96875 6.59375 36.375 
Q 6.59375 54.828125 13.0625 64.515625 
Q 19.53125 74.21875 31.78125 74.21875 
z
" id="DejaVuSans-30"/>
       <path d="M 10.6875 12.40625 
L 21 12.40625 
L 21 0 
L 10.6875 0 
z
" id="DejaVuSans-2e"/>
       <path d="M 10.796875 72.90625 
L 49.515625 72.90625 
L 49.515625 64.59375 
L 19.828125 64.59375 
L 19.828125 46.734375 
Q 21.96875 47.46875 24.109375 47.828125 
Q 26.265625 48.1875 28.421875 48.1875 
Q 40.625 48.1875 47.75 41.5 
Q 54.890625 34.8125 54.890625 23.390625 
Q 54.890625 11.625 47.5625 5.09375 
Q 40.234375 -1.421875 26.90625 -1.421875 
Q 22.3125 -1.421875 17.546875 -0.640625 
Q 12.796875 0.140625 7.71875 1.703125 
L 7.71875 11.625 
Q 12.109375 9.234375 16.796875 8.0625 
Q 21.484375 6.890625 26.703125 6.890625 
Q 35.15625 6.890625 40.078125 11.328125 
Q 45.015625 15.765625 45.015625 23.390625 
Q 45.015625 31 40.078125 35.4375 
Q 35.15625 39.890625 26.703125 39.890625 
Q 22.75 39.890625 18.8125 39.015625 
Q 14.890625 38.140625 10.796875 36.28125 
z
" id="DejaVuSans-35"/>
      </defs>
      <g transform="translate(26.317187 117.026208)scale(0.1 -0.1)">
       <use xlink:href="#DejaVuSans-2212"/>
       <use x="83.789062" xlink:href="#DejaVuSans-30"/>
       <use x="147.412109" xlink:href="#DejaVuSans-2e"/>
       <use x="179.199219" xlink:href="#DejaVuSans-35"/>
      </g>
     </g>
    </g>
    <g id="ytick_2">
     <g id="line2d_9">
      <g>
       <use style="stroke:#000000;stroke-width:0.8;" x="57.6" xlink:href="#m02ab4f7838" y="80.606118"/>
      </g>
     </g>
     <g id="text_2">
      <!-- 0.0 -->
      <g transform="translate(34.696875 84.405336)scale(0.1 -0.1)">
       <use xlink:href="#DejaVuSans-30"/>
       <use x="63.623047" xlink:href="#DejaVuSans-2e"/>
       <use x="95.410156" xlink:href="#DejaVuSans-30"/>
      </g>
     </g>
    </g>
    <g id="ytick_3">
     <g id="line2d_10">
      <g>
       <use style="stroke:#000000;stroke-width:0.8;" x="57.6" xlink:href="#m02ab4f7838" y="47.985246"/>
      </g>
     </g>
     <g id="text_3">
      <!-- 0.5 -->
      <g transform="translate(34.696875 51.784465)scale(0.1 -0.1)">
       <use xlink:href="#DejaVuSans-30"/>
       <use x="63.623047" xlink:href="#DejaVuSans-2e"/>
       <use x="95.410156" xlink:href="#DejaVuSans-35"/>
      </g>
     </g>
    </g>
   </g>
   <g id="line2d_11">
    <path clip-path="url(#p0cc2467218)" d="M 57.6 80.365909 
L 59.3856 80.40833 
L 64.7424 80.285709 
L 65.6352 80.414681 
L 68.3136 80.319754 
L 70.0992 80.211222 
L 70.992 80.269571 
L 71.8848 75.256931 
L 72.7776 74.956798 
L 73.6704 75.197152 
L 74.5632 75.867077 
L 75.456 76.714517 
L 76.3488 76.777591 
L 77.2416 75.632016 
L 78.1344 74.250379 
L 79.0272 73.517726 
L 79.92 73.867069 
L 80.8128 74.841757 
L 81.7056 75.475843 
L 82.5984 75.217664 
L 83.4912 74.512433 
L 84.384 74.416768 
L 85.2768 75.571124 
L 86.1696 66.543582 
L 87.0624 66.047723 
L 87.9552 65.812807 
L 88.848 66.112476 
L 89.7408 65.276177 
L 90.6336 64.752171 
L 91.5264 64.847851 
L 92.4192 65.356622 
L 94.2048 66.905477 
L 95.9904 68.695286 
L 96.8832 67.866831 
L 97.776 66.640377 
L 98.6688 65.917219 
L 99.5616 65.846557 
L 100.4544 61.789845 
L 101.3472 62.734748 
L 102.24 62.182154 
L 103.1328 61.920541 
L 104.0256 63.013533 
L 104.9184 64.304486 
L 105.8112 64.314671 
L 106.704 64.065725 
L 107.5968 62.373138 
L 109.3824 65.276316 
L 110.2752 65.782699 
L 111.168 65.087392 
L 112.0608 61.327966 
L 112.9536 61.121016 
L 113.8464 62.364105 
L 114.7392 51.943392 
L 115.632 53.98041 
L 116.5248 55.491353 
L 117.4176 54.778962 
L 118.3104 52.879813 
L 119.2032 51.958161 
L 120.096 53.883557 
L 120.9888 56.943452 
L 121.8816 57.023007 
L 122.7744 57.39908 
L 123.6672 59.094224 
L 124.56 59.006014 
L 125.4528 55.536827 
L 126.3456 55.32961 
L 127.2384 51.899545 
L 128.1312 50.418642 
L 129.024 59.015227 
L 129.9168 59.80049 
L 130.8096 58.66989 
L 132.5952 61.534061 
L 133.488 59.989617 
L 134.3808 57.204093 
L 135.2736 57.643354 
L 136.1664 56.982901 
L 137.0592 55.118598 
L 137.952 55.534704 
L 138.8448 57.375476 
L 139.7376 58.824651 
L 140.6304 57.611637 
L 141.5232 57.877361 
L 142.416 59.036539 
L 143.3088 54.186517 
L 144.2016 54.006188 
L 145.0944 56.637568 
L 145.9872 56.385087 
L 146.88 57.520513 
L 147.7728 56.132484 
L 148.6656 57.770246 
L 149.5584 59.708671 
L 150.4512 58.309826 
L 151.344 60.919554 
L 152.2368 62.840363 
L 153.1296 58.557152 
L 154.0224 52.025352 
L 154.9152 51.518426 
L 155.808 53.856377 
L 156.7008 57.992614 
L 157.5936 56.544237 
L 158.4864 56.308206 
L 159.3792 57.721355 
L 160.272 58.711392 
L 161.1648 59.144987 
L 162.0576 59.381963 
L 162.9504 59.937421 
L 164.736 56.588963 
L 165.6288 55.614648 
L 166.5216 56.707267 
L 167.4144 54.876964 
L 168.3072 52.689299 
L 169.2 52.649045 
L 170.0928 55.865155 
L 170.9856 57.522104 
L 171.8784 58.214761 
L 172.7712 55.948123 
L 173.664 56.498805 
L 174.5568 56.527243 
L 175.4496 51.983875 
L 176.3424 49.266816 
L 177.2352 50.069253 
L 179.0208 55.892734 
L 179.9136 54.976266 
L 180.8064 54.513252 
L 181.6992 55.175858 
L 182.592 56.329592 
L 183.4848 59.177771 
L 184.3776 58.53564 
L 185.2704 57.397377 
L 186.1632 55.82998 
L 187.056 59.363249 
L 187.9488 59.761437 
L 188.8416 59.045222 
L 189.7344 58.806035 
L 190.6272 59.125971 
L 191.52 57.533546 
L 192.4128 54.537808 
L 193.3056 56.424484 
L 194.1984 59.049992 
L 195.0912 58.116283 
L 195.984 53.644721 
L 196.8768 52.639395 
L 197.7696 53.391659 
L 198.6624 55.129572 
L 199.5552 55.899877 
L 200.448 57.165264 
L 201.3408 55.726659 
L 202.2336 57.069687 
L 203.1264 59.300333 
L 204.0192 59.307107 
L 204.912 58.673014 
L 205.8048 59.436246 
L 206.6976 57.877258 
L 207.5904 58.319103 
L 208.4832 60.670579 
L 209.376 59.142084 
L 210.2688 55.832008 
L 211.1616 55.489047 
L 212.0544 56.527916 
L 212.9472 58.548461 
L 213.84 61.430103 
L 214.7328 61.542095 
L 215.6256 60.052342 
L 216.5184 59.42497 
L 218.304 54.528786 
L 219.1968 54.266335 
L 220.0896 56.50752 
L 220.9824 57.150568 
L 221.8752 56.559687 
L 222.768 59.024266 
L 223.6608 55.071549 
L 224.5536 52.734801 
L 225.4464 53.359892 
L 226.3392 55.260037 
L 227.232 57.808643 
L 228.1248 61.477401 
L 229.0176 53.572678 
L 229.9104 57.378569 
L 230.8032 57.405285 
L 231.696 54.9868 
L 232.5888 55.018587 
L 233.4816 54.900024 
L 234.3744 57.93125 
L 235.2672 59.334406 
L 236.16 55.830437 
L 237.0528 56.175931 
L 238.8384 50.800638 
L 239.7312 51.863267 
L 240.624 50.980786 
L 241.5168 48.320893 
L 242.4096 50.362407 
L 243.3024 51.413526 
L 244.1952 53.615917 
L 245.088 54.683123 
L 245.9808 55.998783 
L 246.8736 54.657456 
L 247.7664 55.468503 
L 249.552 45.946286 
L 250.4448 45.029647 
L 251.3376 46.004065 
L 252.2304 48.158039 
L 254.016 56.060349 
L 254.9088 54.701139 
L 255.8016 55.06123 
L 256.6944 51.711615 
L 257.5872 56.527574 
L 258.48 57.152587 
L 259.3728 57.323099 
L 260.2656 55.458155 
L 261.1584 55.219891 
L 262.0512 57.477035 
L 262.944 58.070653 
L 264.7296 52.976558 
L 265.6224 54.266203 
L 266.5152 54.131931 
L 267.408 52.838474 
L 268.3008 55.380258 
L 269.1936 57.249511 
L 270.0864 56.764725 
L 270.9792 55.916161 
L 271.872 62.600251 
L 272.7648 61.955129 
L 273.6576 58.772103 
L 274.5504 58.361462 
L 275.4432 56.459852 
L 277.2288 60.56138 
L 278.1216 57.179745 
L 279.0144 55.330504 
L 279.9072 57.170992 
L 280.8 55.12971 
L 281.6928 56.038133 
L 282.5856 57.993044 
L 283.4784 57.630315 
L 284.3712 56.696439 
L 285.264 58.744209 
L 286.1568 55.852128 
L 287.0496 55.133823 
L 287.9424 53.957295 
L 288.8352 54.526634 
L 289.728 57.333812 
L 290.6208 55.412229 
L 291.5136 54.381116 
L 292.4064 55.862503 
L 293.2992 54.106672 
L 294.192 50.913002 
L 295.0848 52.364431 
L 296.8704 51.9139 
L 297.7632 54.844454 
L 298.656 58.806417 
L 299.5488 58.660672 
L 300.4416 59.849485 
L 301.3344 60.664015 
L 302.2272 63.158164 
L 303.12 65.227814 
L 304.0128 62.161085 
L 304.9056 58.417139 
L 305.7984 58.603865 
L 306.6912 60.851396 
L 307.584 57.779365 
L 308.4768 57.874359 
L 309.3696 61.343865 
L 310.2624 62.608009 
L 311.1552 61.780335 
L 312.048 58.926535 
L 312.9408 59.606573 
L 313.8336 61.311446 
L 314.7264 50.480445 
L 315.6192 48.493135 
L 316.512 51.890348 
L 317.4048 52.852295 
L 318.2976 51.103677 
L 319.1904 52.845112 
L 320.0832 56.787682 
L 321.8688 48.751851 
L 322.7616 50.01924 
L 324.5472 57.177142 
L 325.44 58.163121 
L 326.3328 60.670134 
L 327.2256 62.822724 
L 328.1184 58.675585 
L 329.0112 59.884756 
L 329.904 60.417113 
L 330.7968 62.535659 
L 331.6896 58.020786 
L 332.5824 56.814823 
L 333.4752 58.47401 
L 334.368 57.217155 
L 335.2608 51.855109 
L 336.1536 50.823554 
L 337.0464 52.261724 
L 338.832 55.815197 
L 339.7248 56.485663 
L 340.6176 53.779914 
L 341.5104 54.638376 
L 342.4032 58.145476 
L 343.296 58.611437 
L 344.1888 50.459479 
L 345.0816 47.365347 
L 345.9744 49.427153 
L 346.8672 54.144078 
L 347.76 56.419969 
L 348.6528 52.211027 
L 349.5456 53.070257 
L 351.3312 60.234143 
L 352.224 60.499351 
L 353.1168 54.281215 
L 354.0096 52.795053 
L 354.9024 55.376138 
L 355.7952 59.479873 
L 356.688 61.01535 
L 357.5808 55.44307 
L 358.4736 55.337358 
L 359.3664 56.28961 
L 361.152 59.006193 
L 362.0448 59.951807 
L 362.9376 58.896911 
L 363.8304 55.04941 
L 364.7232 55.54639 
L 365.616 59.731685 
L 366.5088 57.722942 
L 367.4016 56.194593 
L 368.2944 51.239106 
L 369.1872 51.046132 
L 370.08 54.115735 
L 370.9728 54.93634 
L 371.8656 59.628016 
L 372.7584 54.514952 
L 373.6512 50.869227 
L 374.544 52.096897 
L 375.4368 55.795434 
L 376.3296 57.257494 
L 377.2224 56.318874 
L 378.1152 59.606079 
L 379.008 60.938315 
L 379.9008 53.772208 
L 380.7936 52.321657 
L 381.6864 55.522851 
L 382.5792 59.891896 
L 383.472 59.967712 
L 384.3648 58.954491 
L 385.2576 58.894618 
L 386.1504 55.684709 
L 387.0432 56.420912 
L 387.936 56.45503 
L 388.8288 52.099065 
L 389.7216 52.534692 
L 390.6144 54.845348 
L 391.5072 56.241734 
L 392.4 56.845841 
L 393.2928 59.101994 
L 394.1856 59.237107 
L 395.0784 55.184596 
L 395.9712 56.362224 
L 396.864 60.092472 
L 397.7568 55.61275 
L 398.6496 52.342955 
L 399.5424 54.690562 
L 400.4352 55.099353 
L 401.328 56.041141 
L 402.2208 58.327417 
L 403.1136 58.310929 
L 404.0064 56.887427 
L 404.8992 57.251589 
L 405.792 59.775682 
L 406.6848 55.398626 
L 407.5776 55.687604 
L 408.4704 57.228535 
L 409.3632 52.463826 
L 410.256 53.383018 
L 411.1488 57.052678 
L 412.0416 59.03698 
L 412.9344 59.319824 
L 413.8272 56.025333 
L 414.72 64.836622 
L 415.6128 58.150928 
L 416.5056 55.889323 
L 417.3984 57.955108 
L 418.2912 50.621034 
L 419.184 50.607836 
L 420.0768 54.628821 
L 420.9696 57.687506 
L 422.7552 58.201143 
L 423.648 62.444659 
L 424.5408 64.604413 
L 425.4336 64.531664 
L 426.3264 63.067203 
L 427.2192 62.722963 
L 428.112 64.148238 
L 429.0048 76.12609 
L 429.8976 76.36829 
L 430.7904 75.615692 
L 431.6832 75.229382 
L 432.576 75.179599 
L 434.3616 75.946648 
L 436.1472 75.217469 
L 437.9328 75.932405 
L 438.8256 77.549375 
L 439.7184 77.752663 
L 440.6112 76.650639 
L 441.504 76.642315 
L 442.3968 76.510527 
L 442.3968 76.510527 
" style="fill:none;stroke:#0000ff;stroke-linecap:square;stroke-width:1.5;"/>
   </g>
   <g id="line2d_12">
    <path clip-path="url(#p0cc2467218)" d="M 57.6 80.846327 
L 59.3856 80.803906 
L 64.7424 80.926527 
L 65.6352 80.797554 
L 68.3136 80.892481 
L 70.0992 81.001013 
L 70.992 80.942664 
L 71.8848 85.955304 
L 72.7776 86.255437 
L 73.6704 86.015084 
L 74.5632 85.345158 
L 75.456 84.497719 
L 76.3488 84.434644 
L 77.2416 85.58022 
L 78.1344 86.961856 
L 79.0272 87.694509 
L 79.92 87.345166 
L 80.8128 86.370478 
L 81.7056 85.736392 
L 82.5984 85.994571 
L 83.4912 86.699802 
L 84.384 86.795468 
L 85.2768 85.641112 
L 86.1696 94.668653 
L 87.0624 95.164512 
L 87.9552 95.399428 
L 88.848 95.099759 
L 89.7408 95.936059 
L 90.6336 96.460064 
L 91.5264 96.364385 
L 92.4192 95.855613 
L 94.2048 94.306758 
L 95.9904 92.516949 
L 96.8832 93.345404 
L 97.776 94.571858 
L 98.6688 95.295016 
L 99.5616 95.365678 
L 100.4544 99.42239 
L 101.3472 98.477488 
L 102.24 99.030081 
L 103.1328 99.291694 
L 104.0256 98.198702 
L 104.9184 96.907749 
L 105.8112 96.897565 
L 106.704 97.14651 
L 107.5968 98.839097 
L 109.3824 95.93592 
L 110.2752 95.429537 
L 111.168 96.124843 
L 112.0608 99.88427 
L 112.9536 100.091219 
L 113.8464 98.848131 
L 114.7392 109.268843 
L 115.632 107.231826 
L 116.5248 105.720883 
L 117.4176 106.433273 
L 118.3104 108.332422 
L 119.2032 109.254074 
L 120.096 107.328678 
L 120.9888 104.268784 
L 121.8816 104.189228 
L 122.7744 103.813155 
L 123.6672 102.118011 
L 124.56 102.206221 
L 125.4528 105.675408 
L 126.3456 105.882626 
L 127.2384 109.31269 
L 128.1312 110.793593 
L 129.024 102.197009 
L 129.9168 101.411746 
L 130.8096 102.542346 
L 132.5952 99.678174 
L 133.488 101.222618 
L 134.3808 104.008143 
L 135.2736 103.568882 
L 136.1664 104.229334 
L 137.0592 106.093637 
L 137.952 105.677531 
L 138.8448 103.836759 
L 139.7376 102.387585 
L 140.6304 103.600598 
L 141.5232 103.334875 
L 142.416 102.175697 
L 143.3088 107.025718 
L 144.2016 107.206047 
L 145.0944 104.574668 
L 145.9872 104.827148 
L 146.88 103.691722 
L 147.7728 105.079751 
L 148.6656 103.441989 
L 149.5584 101.503564 
L 150.4512 102.902409 
L 151.344 100.292682 
L 152.2368 98.371872 
L 153.1296 102.655083 
L 154.0224 109.186883 
L 154.9152 109.693809 
L 155.808 107.355858 
L 156.7008 103.219621 
L 157.5936 104.667999 
L 158.4864 104.90403 
L 159.3792 103.49088 
L 160.272 102.500843 
L 161.1648 102.067248 
L 162.0576 101.830272 
L 162.9504 101.274814 
L 164.736 104.623273 
L 165.6288 105.597587 
L 166.5216 104.504968 
L 167.4144 106.335272 
L 168.3072 108.522936 
L 169.2 108.56319 
L 170.0928 105.34708 
L 170.9856 103.690132 
L 171.8784 102.997474 
L 172.7712 105.264113 
L 173.664 104.71343 
L 174.5568 104.684992 
L 175.4496 109.22836 
L 176.3424 111.94542 
L 177.2352 111.142982 
L 179.0208 105.319502 
L 179.9136 106.23597 
L 180.8064 106.698983 
L 181.6992 106.036378 
L 182.592 104.882644 
L 183.4848 102.034464 
L 184.3776 102.676596 
L 185.2704 103.814858 
L 186.1632 105.382256 
L 187.056 101.848986 
L 187.9488 101.450798 
L 188.8416 102.167013 
L 189.7344 102.4062 
L 190.6272 102.086264 
L 191.52 103.678689 
L 192.4128 106.674428 
L 193.3056 104.787751 
L 194.1984 102.162244 
L 195.0912 103.095952 
L 195.984 107.567515 
L 196.8768 108.57284 
L 197.7696 107.820577 
L 198.6624 106.082663 
L 199.5552 105.312358 
L 200.448 104.046971 
L 201.3408 105.485577 
L 202.2336 104.142548 
L 203.1264 101.911902 
L 204.0192 101.905128 
L 204.912 102.539221 
L 205.8048 101.77599 
L 206.6976 103.334978 
L 207.5904 102.893133 
L 208.4832 100.541656 
L 209.376 102.070151 
L 210.2688 105.380228 
L 211.1616 105.723189 
L 212.0544 104.684319 
L 212.9472 102.663774 
L 213.84 99.782133 
L 214.7328 99.67014 
L 215.6256 101.159893 
L 216.5184 101.787265 
L 218.304 106.683449 
L 219.1968 106.9459 
L 220.0896 104.704716 
L 220.9824 104.061667 
L 221.8752 104.652549 
L 222.768 102.187969 
L 223.6608 106.140686 
L 224.5536 108.477434 
L 225.4464 107.852343 
L 226.3392 105.952199 
L 227.232 103.403592 
L 228.1248 99.734834 
L 229.0176 107.639557 
L 229.9104 103.833666 
L 230.8032 103.80695 
L 231.696 106.225435 
L 232.5888 106.193649 
L 233.4816 106.312212 
L 234.3744 103.280985 
L 235.2672 101.877829 
L 236.16 105.381799 
L 237.0528 105.036304 
L 238.8384 110.411597 
L 239.7312 109.348968 
L 240.624 110.231449 
L 241.5168 112.891343 
L 242.4096 110.849828 
L 243.3024 109.798709 
L 244.1952 107.596318 
L 245.088 106.529112 
L 245.9808 105.213453 
L 246.8736 106.55478 
L 247.7664 105.743733 
L 249.552 115.265949 
L 250.4448 116.182588 
L 251.3376 115.208171 
L 252.2304 113.054196 
L 254.016 105.151886 
L 254.9088 106.511096 
L 255.8016 106.151005 
L 256.6944 109.50062 
L 257.5872 104.684662 
L 258.48 104.059649 
L 259.3728 103.889136 
L 260.2656 105.754081 
L 261.1584 105.992344 
L 262.0512 103.7352 
L 262.944 103.141582 
L 264.7296 108.235677 
L 265.6224 106.946033 
L 266.5152 107.080304 
L 267.408 108.373761 
L 268.3008 105.831977 
L 269.1936 103.962724 
L 270.0864 104.447511 
L 270.9792 105.296074 
L 271.872 98.611985 
L 272.7648 99.257106 
L 273.6576 102.440133 
L 274.5504 102.850773 
L 275.4432 104.752384 
L 277.2288 100.650855 
L 278.1216 104.03249 
L 279.0144 105.881731 
L 279.9072 104.041243 
L 280.8 106.082525 
L 281.6928 105.174103 
L 282.5856 103.219191 
L 283.4784 103.581921 
L 284.3712 104.515796 
L 285.264 102.468026 
L 286.1568 105.360107 
L 287.0496 106.078413 
L 287.9424 107.25494 
L 288.8352 106.685602 
L 289.728 103.878423 
L 290.6208 105.800006 
L 291.5136 106.831119 
L 292.4064 105.349732 
L 293.2992 107.105563 
L 294.192 110.299233 
L 295.0848 108.847805 
L 296.8704 109.298335 
L 297.7632 106.367781 
L 298.656 102.405819 
L 299.5488 102.551564 
L 300.4416 101.36275 
L 301.3344 100.54822 
L 302.2272 98.054071 
L 303.12 95.984422 
L 304.0128 99.05115 
L 304.9056 102.795096 
L 305.7984 102.60837 
L 306.6912 100.360839 
L 307.584 103.43287 
L 308.4768 103.337877 
L 309.3696 99.868371 
L 310.2624 98.604227 
L 311.1552 99.4319 
L 312.048 102.2857 
L 312.9408 101.605662 
L 313.8336 99.900789 
L 314.7264 110.73179 
L 315.6192 112.7191 
L 316.512 109.321887 
L 317.4048 108.359941 
L 318.2976 110.108558 
L 319.1904 108.367123 
L 320.0832 104.424554 
L 321.8688 112.460384 
L 322.7616 111.192995 
L 324.5472 104.035093 
L 325.44 103.049115 
L 326.3328 100.542102 
L 327.2256 98.389511 
L 328.1184 102.536651 
L 329.0112 101.327479 
L 329.904 100.795123 
L 330.7968 98.676576 
L 331.6896 103.191449 
L 332.5824 104.397412 
L 333.4752 102.738226 
L 334.368 103.99508 
L 335.2608 109.357127 
L 336.1536 110.388681 
L 337.0464 108.950511 
L 338.832 105.397039 
L 339.7248 104.726572 
L 340.6176 107.432322 
L 341.5104 106.57386 
L 342.4032 103.06676 
L 343.296 102.600799 
L 344.1888 110.752756 
L 345.0816 113.846888 
L 345.9744 111.785082 
L 346.8672 107.068158 
L 347.76 104.792266 
L 348.6528 109.001209 
L 349.5456 108.141978 
L 351.3312 100.978092 
L 352.224 100.712884 
L 353.1168 106.93102 
L 354.0096 108.417183 
L 354.9024 105.836097 
L 355.7952 101.732362 
L 356.688 100.196885 
L 357.5808 105.769165 
L 358.4736 105.874878 
L 359.3664 104.922626 
L 361.152 102.206042 
L 362.0448 101.260428 
L 362.9376 102.315325 
L 363.8304 106.162825 
L 364.7232 105.665846 
L 365.616 101.480551 
L 366.5088 103.489293 
L 367.4016 105.017642 
L 368.2944 109.97313 
L 369.1872 110.166103 
L 370.08 107.0965 
L 370.9728 106.275895 
L 371.8656 101.58422 
L 372.7584 106.697283 
L 373.6512 110.343008 
L 374.544 109.115338 
L 375.4368 105.416801 
L 376.3296 103.954741 
L 377.2224 104.893361 
L 378.1152 101.606156 
L 379.008 100.273921 
L 379.9008 107.440027 
L 380.7936 108.890579 
L 381.6864 105.689384 
L 382.5792 101.32034 
L 383.472 101.244523 
L 384.3648 102.257744 
L 385.2576 102.317617 
L 386.1504 105.527526 
L 387.0432 104.791323 
L 387.936 104.757206 
L 388.8288 109.11317 
L 389.7216 108.677543 
L 390.6144 106.366887 
L 391.5072 104.970501 
L 392.4 104.366394 
L 393.2928 102.110242 
L 394.1856 101.975128 
L 395.0784 106.02764 
L 395.9712 104.850012 
L 396.864 101.119764 
L 397.7568 105.599485 
L 398.6496 108.86928 
L 399.5424 106.521673 
L 400.4352 106.112882 
L 401.328 105.171095 
L 402.2208 102.884819 
L 403.1136 102.901307 
L 404.0064 104.324808 
L 404.8992 103.960646 
L 405.792 101.436554 
L 406.6848 105.813609 
L 407.5776 105.524631 
L 408.4704 103.9837 
L 409.3632 108.748409 
L 410.256 107.829217 
L 411.1488 104.159557 
L 412.0416 102.175255 
L 412.9344 101.892412 
L 413.8272 105.186902 
L 414.72 96.375613 
L 415.6128 103.061308 
L 416.5056 105.322912 
L 417.3984 103.257128 
L 418.2912 110.591201 
L 419.184 110.6044 
L 420.0768 106.583414 
L 420.9696 103.524729 
L 422.7552 103.011093 
L 423.648 98.767576 
L 424.5408 96.607823 
L 425.4336 96.680571 
L 426.3264 98.145032 
L 427.2192 98.489272 
L 428.112 97.063998 
L 429.0048 85.086145 
L 429.8976 84.843945 
L 430.7904 85.596543 
L 431.6832 85.982854 
L 432.576 86.032637 
L 434.3616 85.265588 
L 436.1472 85.994767 
L 437.9328 85.27983 
L 438.8256 83.662861 
L 439.7184 83.459572 
L 440.6112 84.561597 
L 441.504 84.569921 
L 442.3968 84.701708 
L 442.3968 84.701708 
" style="fill:none;stroke:#0000ff;stroke-linecap:square;stroke-width:1.5;"/>
   </g>
   <g id="patch_3">
    <path d="M 57.6 119.740235 
L 57.6 41.472 
" style="fill:none;stroke:#000000;stroke-linecap:square;stroke-linejoin:miter;stroke-width:0.8;"/>
   </g>
   <g id="patch_4">
    <path d="M 414.72 119.740235 
L 414.72 41.472 
" style="fill:none;stroke:#000000;stroke-linecap:square;stroke-linejoin:miter;stroke-width:0.8;"/>
   </g>
   <g id="patch_5">
    <path d="M 57.6 119.740235 
L 414.72 119.740235 
" style="fill:none;stroke:#000000;stroke-linecap:square;stroke-linejoin:miter;stroke-width:0.8;"/>
   </g>
   <g id="patch_6">
    <path d="M 57.6 41.472 
L 414.72 41.472 
" style="fill:none;stroke:#000000;stroke-linecap:square;stroke-linejoin:miter;stroke-width:0.8;"/>
   </g>
  </g>
  <g id="axes_2">
   <g id="patch_7">
    <path d="M 57.6 213.662118 
L 414.72 213.662118 
L 414.72 135.393882 
L 57.6 135.393882 
z
" style="fill:#ffffff;"/>
   </g>
   <g id="matplotlib.axis_3">
    <g id="xtick_8">
     <g id="line2d_13">
      <g>
       <use style="stroke:#000000;stroke-width:0.8;" x="57.6" xlink:href="#m407633620f" y="213.662118"/>
      </g>
     </g>
    </g>
    <g id="xtick_9">
     <g id="line2d_14">
      <g>
       <use style="stroke:#000000;stroke-width:0.8;" x="113.4" xlink:href="#m407633620f" y="213.662118"/>
      </g>
     </g>
    </g>
    <g id="xtick_10">
     <g id="line2d_15">
      <g>
       <use style="stroke:#000000;stroke-width:0.8;" x="169.2" xlink:href="#m407633620f" y="213.662118"/>
      </g>
     </g>
    </g>
    <g id="xtick_11">
     <g id="line2d_16">
      <g>
       <use style="stroke:#000000;stroke-width:0.8;" x="225" xlink:href="#m407633620f" y="213.662118"/>
      </g>
     </g>
    </g>
    <g id="xtick_12">
     <g id="line2d_17">
      <g>
       <use style="stroke:#000000;stroke-width:0.8;" x="280.8" xlink:href="#m407633620f" y="213.662118"/>
      </g>
     </g>
    </g>
    <g id="xtick_13">
     <g id="line2d_18">
      <g>
       <use style="stroke:#000000;stroke-width:0.8;" x="336.6" xlink:href="#m407633620f" y="213.662118"/>
      </g>
     </g>
    </g>
    <g id="xtick_14">
     <g id="line2d_19">
      <g>
       <use style="stroke:#000000;stroke-width:0.8;" x="392.4" xlink:href="#m407633620f" y="213.662118"/>
      </g>
     </g>
    </g>
   </g>
   <g id="matplotlib.axis_4">
    <g id="ytick_4">
     <g id="line2d_20">
      <g>
       <use style="stroke:#000000;stroke-width:0.8;" x="57.6" xlink:href="#m02ab4f7838" y="198.662147"/>
      </g>
     </g>
     <g id="text_4">
      <!-- 50 -->
      <g transform="translate(37.875 202.461366)scale(0.1 -0.1)">
       <use xlink:href="#DejaVuSans-35"/>
       <use x="63.623047" xlink:href="#DejaVuSans-30"/>
      </g>
     </g>
    </g>
    <g id="ytick_5">
     <g id="line2d_21">
      <g>
       <use style="stroke:#000000;stroke-width:0.8;" x="57.6" xlink:href="#m02ab4f7838" y="171.708549"/>
      </g>
     </g>
     <g id="text_5">
      <!-- 100 -->
      <defs>
       <path d="M 12.40625 8.296875 
L 28.515625 8.296875 
L 28.515625 63.921875 
L 10.984375 60.40625 
L 10.984375 69.390625 
L 28.421875 72.90625 
L 38.28125 72.90625 
L 38.28125 8.296875 
L 54.390625 8.296875 
L 54.390625 0 
L 12.40625 0 
z
" id="DejaVuSans-31"/>
      </defs>
      <g transform="translate(31.5125 175.507768)scale(0.1 -0.1)">
       <use xlink:href="#DejaVuSans-31"/>
       <use x="63.623047" xlink:href="#DejaVuSans-30"/>
       <use x="127.246094" xlink:href="#DejaVuSans-30"/>
      </g>
     </g>
    </g>
    <g id="ytick_6">
     <g id="line2d_22">
      <g>
       <use style="stroke:#000000;stroke-width:0.8;" x="57.6" xlink:href="#m02ab4f7838" y="144.754951"/>
      </g>
     </g>
     <g id="text_6">
      <!-- 150 -->
      <g transform="translate(31.5125 148.55417)scale(0.1 -0.1)">
       <use xlink:href="#DejaVuSans-31"/>
       <use x="63.623047" xlink:href="#DejaVuSans-35"/>
       <use x="127.246094" xlink:href="#DejaVuSans-30"/>
      </g>
     </g>
    </g>
    <g id="text_7">
     <!-- f0 (midi) -->
     <defs>
      <path d="M 37.109375 75.984375 
L 37.109375 68.5 
L 28.515625 68.5 
Q 23.6875 68.5 21.796875 66.546875 
Q 19.921875 64.59375 19.921875 59.515625 
L 19.921875 54.6875 
L 34.71875 54.6875 
L 34.71875 47.703125 
L 19.921875 47.703125 
L 19.921875 0 
L 10.890625 0 
L 10.890625 47.703125 
L 2.296875 47.703125 
L 2.296875 54.6875 
L 10.890625 54.6875 
L 10.890625 58.5 
Q 10.890625 67.625 15.140625 71.796875 
Q 19.390625 75.984375 28.609375 75.984375 
z
" id="DejaVuSans-66"/>
      <path id="DejaVuSans-20"/>
      <path d="M 31 75.875 
Q 24.46875 64.65625 21.28125 53.65625 
Q 18.109375 42.671875 18.109375 31.390625 
Q 18.109375 20.125 21.3125 9.0625 
Q 24.515625 -2 31 -13.1875 
L 23.1875 -13.1875 
Q 15.875 -1.703125 12.234375 9.375 
Q 8.59375 20.453125 8.59375 31.390625 
Q 8.59375 42.28125 12.203125 53.3125 
Q 15.828125 64.359375 23.1875 75.875 
z
" id="DejaVuSans-28"/>
      <path d="M 52 44.1875 
Q 55.375 50.25 60.0625 53.125 
Q 64.75 56 71.09375 56 
Q 79.640625 56 84.28125 50.015625 
Q 88.921875 44.046875 88.921875 33.015625 
L 88.921875 0 
L 79.890625 0 
L 79.890625 32.71875 
Q 79.890625 40.578125 77.09375 44.375 
Q 74.3125 48.1875 68.609375 48.1875 
Q 61.625 48.1875 57.5625 43.546875 
Q 53.515625 38.921875 53.515625 30.90625 
L 53.515625 0 
L 44.484375 0 
L 44.484375 32.71875 
Q 44.484375 40.625 41.703125 44.40625 
Q 38.921875 48.1875 33.109375 48.1875 
Q 26.21875 48.1875 22.15625 43.53125 
Q 18.109375 38.875 18.109375 30.90625 
L 18.109375 0 
L 9.078125 0 
L 9.078125 54.6875 
L 18.109375 54.6875 
L 18.109375 46.1875 
Q 21.1875 51.21875 25.484375 53.609375 
Q 29.78125 56 35.6875 56 
Q 41.65625 56 45.828125 52.96875 
Q 50 49.953125 52 44.1875 
z
" id="DejaVuSans-6d"/>
      <path d="M 9.421875 54.6875 
L 18.40625 54.6875 
L 18.40625 0 
L 9.421875 0 
z
M 9.421875 75.984375 
L 18.40625 75.984375 
L 18.40625 64.59375 
L 9.421875 64.59375 
z
" id="DejaVuSans-69"/>
      <path d="M 45.40625 46.390625 
L 45.40625 75.984375 
L 54.390625 75.984375 
L 54.390625 0 
L 45.40625 0 
L 45.40625 8.203125 
Q 42.578125 3.328125 38.25 0.953125 
Q 33.9375 -1.421875 27.875 -1.421875 
Q 17.96875 -1.421875 11.734375 6.484375 
Q 5.515625 14.40625 5.515625 27.296875 
Q 5.515625 40.1875 11.734375 48.09375 
Q 17.96875 56 27.875 56 
Q 33.9375 56 38.25 53.625 
Q 42.578125 51.265625 45.40625 46.390625 
z
M 14.796875 27.296875 
Q 14.796875 17.390625 18.875 11.75 
Q 22.953125 6.109375 30.078125 6.109375 
Q 37.203125 6.109375 41.296875 11.75 
Q 45.40625 17.390625 45.40625 27.296875 
Q 45.40625 37.203125 41.296875 42.84375 
Q 37.203125 48.484375 30.078125 48.484375 
Q 22.953125 48.484375 18.875 42.84375 
Q 14.796875 37.203125 14.796875 27.296875 
z
" id="DejaVuSans-64"/>
      <path d="M 8.015625 75.875 
L 15.828125 75.875 
Q 23.140625 64.359375 26.78125 53.3125 
Q 30.421875 42.28125 30.421875 31.390625 
Q 30.421875 20.453125 26.78125 9.375 
Q 23.140625 -1.703125 15.828125 -13.1875 
L 8.015625 -13.1875 
Q 14.5 -2 17.703125 9.0625 
Q 20.90625 20.125 20.90625 31.390625 
Q 20.90625 42.671875 17.703125 53.65625 
Q 14.5 64.65625 8.015625 75.875 
z
" id="DejaVuSans-29"/>
     </defs>
     <g transform="translate(25.432812 195.782688)rotate(-90)scale(0.1 -0.1)">
      <use xlink:href="#DejaVuSans-66"/>
      <use x="35.205078" xlink:href="#DejaVuSans-30"/>
      <use x="98.828125" xlink:href="#DejaVuSans-20"/>
      <use x="130.615234" xlink:href="#DejaVuSans-28"/>
      <use x="169.628906" xlink:href="#DejaVuSans-6d"/>
      <use x="267.041016" xlink:href="#DejaVuSans-69"/>
      <use x="294.824219" xlink:href="#DejaVuSans-64"/>
      <use x="358.300781" xlink:href="#DejaVuSans-69"/>
      <use x="386.083984" xlink:href="#DejaVuSans-29"/>
     </g>
    </g>
   </g>
   <g id="line2d_23">
    <defs>
     <path d="M 0 1.5 
C 0.397805 1.5 0.77937 1.341951 1.06066 1.06066 
C 1.341951 0.77937 1.5 0.397805 1.5 0 
C 1.5 -0.397805 1.341951 -0.77937 1.06066 -1.06066 
C 0.77937 -1.341951 0.397805 -1.5 0 -1.5 
C -0.397805 -1.5 -0.77937 -1.341951 -1.06066 -1.06066 
C -1.341951 -0.77937 -1.5 -0.397805 -1.5 0 
C -1.5 0.397805 -1.341951 0.77937 -1.06066 1.06066 
C -0.77937 1.341951 -0.397805 1.5 0 1.5 
z
" id="m67bb36d297" style="stroke:#008000;"/>
    </defs>
    <g clip-path="url(#p82b2bc3ce7)">
     <use style="fill:#008000;stroke:#008000;" x="57.6" xlink:href="#m67bb36d297" y="210.104471"/>
     <use style="fill:#008000;stroke:#008000;" x="71.8848" xlink:href="#m67bb36d297" y="203.631046"/>
     <use style="fill:#008000;stroke:#008000;" x="86.1696" xlink:href="#m67bb36d297" y="138.951529"/>
     <use style="fill:#008000;stroke:#008000;" x="100.4544" xlink:href="#m67bb36d297" y="186.98905"/>
     <use style="fill:#008000;stroke:#008000;" x="114.7392" xlink:href="#m67bb36d297" y="187.419902"/>
     <use style="fill:#008000;stroke:#008000;" x="129.024" xlink:href="#m67bb36d297" y="187.848332"/>
     <use style="fill:#008000;stroke:#008000;" x="143.3088" xlink:href="#m67bb36d297" y="188.399586"/>
     <use style="fill:#008000;stroke:#008000;" x="157.5936" xlink:href="#m67bb36d297" y="188.741828"/>
     <use style="fill:#008000;stroke:#008000;" x="171.8784" xlink:href="#m67bb36d297" y="188.942277"/>
     <use style="fill:#008000;stroke:#008000;" x="186.1632" xlink:href="#m67bb36d297" y="189.154637"/>
     <use style="fill:#008000;stroke:#008000;" x="200.448" xlink:href="#m67bb36d297" y="189.365488"/>
     <use style="fill:#008000;stroke:#008000;" x="214.7328" xlink:href="#m67bb36d297" y="189.62723"/>
     <use style="fill:#008000;stroke:#008000;" x="229.0176" xlink:href="#m67bb36d297" y="187.964189"/>
     <use style="fill:#008000;stroke:#008000;" x="243.3024" xlink:href="#m67bb36d297" y="188.457058"/>
     <use style="fill:#008000;stroke:#008000;" x="257.5872" xlink:href="#m67bb36d297" y="188.617531"/>
     <use style="fill:#008000;stroke:#008000;" x="271.872" xlink:href="#m67bb36d297" y="173.832716"/>
     <use style="fill:#008000;stroke:#008000;" x="286.1568" xlink:href="#m67bb36d297" y="173.822154"/>
     <use style="fill:#008000;stroke:#008000;" x="300.4416" xlink:href="#m67bb36d297" y="173.902642"/>
     <use style="fill:#008000;stroke:#008000;" x="314.7264" xlink:href="#m67bb36d297" y="173.836187"/>
     <use style="fill:#008000;stroke:#008000;" x="329.0112" xlink:href="#m67bb36d297" y="173.815253"/>
     <use style="fill:#008000;stroke:#008000;" x="343.296" xlink:href="#m67bb36d297" y="189.425168"/>
     <use style="fill:#008000;stroke:#008000;" x="357.5808" xlink:href="#m67bb36d297" y="189.62482"/>
     <use style="fill:#008000;stroke:#008000;" x="371.8656" xlink:href="#m67bb36d297" y="189.664191"/>
     <use style="fill:#008000;stroke:#008000;" x="386.1504" xlink:href="#m67bb36d297" y="191.371638"/>
     <use style="fill:#008000;stroke:#008000;" x="400.4352" xlink:href="#m67bb36d297" y="186.474338"/>
     <use style="fill:#008000;stroke:#008000;" x="414.72" xlink:href="#m67bb36d297" y="183.097238"/>
    </g>
   </g>
   <g id="line2d_24">
    <path clip-path="url(#p82b2bc3ce7)" d="M 129.024 187.848332 
M 386.1504 191.371638 
" style="fill:none;stroke:#1f77b4;stroke-linecap:square;stroke-width:1.5;"/>
    <defs>
     <path d="M 0 1.5 
C 0.397805 1.5 0.77937 1.341951 1.06066 1.06066 
C 1.341951 0.77937 1.5 0.397805 1.5 0 
C 1.5 -0.397805 1.341951 -0.77937 1.06066 -1.06066 
C 0.77937 -1.341951 0.397805 -1.5 0 -1.5 
C -0.397805 -1.5 -0.77937 -1.341951 -1.06066 -1.06066 
C -1.341951 -0.77937 -1.5 -0.397805 -1.5 0 
C -1.5 0.397805 -1.341951 0.77937 -1.06066 1.06066 
C -0.77937 1.341951 -0.397805 1.5 0 1.5 
z
" id="m9bb44b9a4b" style="stroke:#1f77b4;"/>
    </defs>
    <g clip-path="url(#p82b2bc3ce7)">
     <use style="fill:#1f77b4;stroke:#1f77b4;" x="129.024" xlink:href="#m9bb44b9a4b" y="187.848332"/>
     <use style="fill:#1f77b4;stroke:#1f77b4;" x="386.1504" xlink:href="#m9bb44b9a4b" y="191.371638"/>
    </g>
   </g>
   <g id="patch_8">
    <path d="M 57.6 213.662118 
L 57.6 135.393882 
" style="fill:none;stroke:#000000;stroke-linecap:square;stroke-linejoin:miter;stroke-width:0.8;"/>
   </g>
   <g id="patch_9">
    <path d="M 414.72 213.662118 
L 414.72 135.393882 
" style="fill:none;stroke:#000000;stroke-linecap:square;stroke-linejoin:miter;stroke-width:0.8;"/>
   </g>
   <g id="patch_10">
    <path d="M 57.6 213.662118 
L 414.72 213.662118 
" style="fill:none;stroke:#000000;stroke-linecap:square;stroke-linejoin:miter;stroke-width:0.8;"/>
   </g>
   <g id="patch_11">
    <path d="M 57.6 135.393882 
L 414.72 135.393882 
" style="fill:none;stroke:#000000;stroke-linecap:square;stroke-linejoin:miter;stroke-width:0.8;"/>
   </g>
  </g>
  <g id="axes_3">
   <g id="patch_12">
    <path d="M 57.6 307.584 
L 414.72 307.584 
L 414.72 229.315765 
L 57.6 229.315765 
z
" style="fill:#ffffff;"/>
   </g>
   <g id="matplotlib.axis_5">
    <g id="xtick_15">
     <g id="line2d_25">
      <g>
       <use style="stroke:#000000;stroke-width:0.8;" x="57.6" xlink:href="#m407633620f" y="307.584"/>
      </g>
     </g>
     <g id="text_8">
      <!-- 00.00 -->
      <g transform="translate(50.512902 341.398598)rotate(-50)scale(0.1 -0.1)">
       <use xlink:href="#DejaVuSans-30"/>
       <use x="63.623047" xlink:href="#DejaVuSans-30"/>
       <use x="127.246094" xlink:href="#DejaVuSans-2e"/>
       <use x="159.033203" xlink:href="#DejaVuSans-30"/>
       <use x="222.65625" xlink:href="#DejaVuSans-30"/>
      </g>
     </g>
    </g>
    <g id="xtick_16">
     <g id="line2d_26">
      <g>
       <use style="stroke:#000000;stroke-width:0.8;" x="113.4" xlink:href="#m407633620f" y="307.584"/>
      </g>
     </g>
     <g id="text_9">
      <!-- 00.04 -->
      <defs>
       <path d="M 37.796875 64.3125 
L 12.890625 25.390625 
L 37.796875 25.390625 
z
M 35.203125 72.90625 
L 47.609375 72.90625 
L 47.609375 25.390625 
L 58.015625 25.390625 
L 58.015625 17.1875 
L 47.609375 17.1875 
L 47.609375 0 
L 37.796875 0 
L 37.796875 17.1875 
L 4.890625 17.1875 
L 4.890625 26.703125 
z
" id="DejaVuSans-34"/>
      </defs>
      <g transform="translate(106.312902 341.398598)rotate(-50)scale(0.1 -0.1)">
       <use xlink:href="#DejaVuSans-30"/>
       <use x="63.623047" xlink:href="#DejaVuSans-30"/>
       <use x="127.246094" xlink:href="#DejaVuSans-2e"/>
       <use x="159.033203" xlink:href="#DejaVuSans-30"/>
       <use x="222.65625" xlink:href="#DejaVuSans-34"/>
      </g>
     </g>
    </g>
    <g id="xtick_17">
     <g id="line2d_27">
      <g>
       <use style="stroke:#000000;stroke-width:0.8;" x="169.2" xlink:href="#m407633620f" y="307.584"/>
      </g>
     </g>
     <g id="text_10">
      <!-- 00.09 -->
      <defs>
       <path d="M 10.984375 1.515625 
L 10.984375 10.5 
Q 14.703125 8.734375 18.5 7.8125 
Q 22.3125 6.890625 25.984375 6.890625 
Q 35.75 6.890625 40.890625 13.453125 
Q 46.046875 20.015625 46.78125 33.40625 
Q 43.953125 29.203125 39.59375 26.953125 
Q 35.25 24.703125 29.984375 24.703125 
Q 19.046875 24.703125 12.671875 31.3125 
Q 6.296875 37.9375 6.296875 49.421875 
Q 6.296875 60.640625 12.9375 67.421875 
Q 19.578125 74.21875 30.609375 74.21875 
Q 43.265625 74.21875 49.921875 64.515625 
Q 56.59375 54.828125 56.59375 36.375 
Q 56.59375 19.140625 48.40625 8.859375 
Q 40.234375 -1.421875 26.421875 -1.421875 
Q 22.703125 -1.421875 18.890625 -0.6875 
Q 15.09375 0.046875 10.984375 1.515625 
z
M 30.609375 32.421875 
Q 37.25 32.421875 41.125 36.953125 
Q 45.015625 41.5 45.015625 49.421875 
Q 45.015625 57.28125 41.125 61.84375 
Q 37.25 66.40625 30.609375 66.40625 
Q 23.96875 66.40625 20.09375 61.84375 
Q 16.21875 57.28125 16.21875 49.421875 
Q 16.21875 41.5 20.09375 36.953125 
Q 23.96875 32.421875 30.609375 32.421875 
z
" id="DejaVuSans-39"/>
      </defs>
      <g transform="translate(162.112902 341.398598)rotate(-50)scale(0.1 -0.1)">
       <use xlink:href="#DejaVuSans-30"/>
       <use x="63.623047" xlink:href="#DejaVuSans-30"/>
       <use x="127.246094" xlink:href="#DejaVuSans-2e"/>
       <use x="159.033203" xlink:href="#DejaVuSans-30"/>
       <use x="222.65625" xlink:href="#DejaVuSans-39"/>
      </g>
     </g>
    </g>
    <g id="xtick_18">
     <g id="line2d_28">
      <g>
       <use style="stroke:#000000;stroke-width:0.8;" x="225" xlink:href="#m407633620f" y="307.584"/>
      </g>
     </g>
     <g id="text_11">
      <!-- 00.13 -->
      <defs>
       <path d="M 40.578125 39.3125 
Q 47.65625 37.796875 51.625 33 
Q 55.609375 28.21875 55.609375 21.1875 
Q 55.609375 10.40625 48.1875 4.484375 
Q 40.765625 -1.421875 27.09375 -1.421875 
Q 22.515625 -1.421875 17.65625 -0.515625 
Q 12.796875 0.390625 7.625 2.203125 
L 7.625 11.71875 
Q 11.71875 9.328125 16.59375 8.109375 
Q 21.484375 6.890625 26.8125 6.890625 
Q 36.078125 6.890625 40.9375 10.546875 
Q 45.796875 14.203125 45.796875 21.1875 
Q 45.796875 27.640625 41.28125 31.265625 
Q 36.765625 34.90625 28.71875 34.90625 
L 20.21875 34.90625 
L 20.21875 43.015625 
L 29.109375 43.015625 
Q 36.375 43.015625 40.234375 45.921875 
Q 44.09375 48.828125 44.09375 54.296875 
Q 44.09375 59.90625 40.109375 62.90625 
Q 36.140625 65.921875 28.71875 65.921875 
Q 24.65625 65.921875 20.015625 65.03125 
Q 15.375 64.15625 9.8125 62.3125 
L 9.8125 71.09375 
Q 15.4375 72.65625 20.34375 73.4375 
Q 25.25 74.21875 29.59375 74.21875 
Q 40.828125 74.21875 47.359375 69.109375 
Q 53.90625 64.015625 53.90625 55.328125 
Q 53.90625 49.265625 50.4375 45.09375 
Q 46.96875 40.921875 40.578125 39.3125 
z
" id="DejaVuSans-33"/>
      </defs>
      <g transform="translate(217.912902 341.398598)rotate(-50)scale(0.1 -0.1)">
       <use xlink:href="#DejaVuSans-30"/>
       <use x="63.623047" xlink:href="#DejaVuSans-30"/>
       <use x="127.246094" xlink:href="#DejaVuSans-2e"/>
       <use x="159.033203" xlink:href="#DejaVuSans-31"/>
       <use x="222.65625" xlink:href="#DejaVuSans-33"/>
      </g>
     </g>
    </g>
    <g id="xtick_19">
     <g id="line2d_29">
      <g>
       <use style="stroke:#000000;stroke-width:0.8;" x="280.8" xlink:href="#m407633620f" y="307.584"/>
      </g>
     </g>
     <g id="text_12">
      <!-- 00.18 -->
      <defs>
       <path d="M 31.78125 34.625 
Q 24.75 34.625 20.71875 30.859375 
Q 16.703125 27.09375 16.703125 20.515625 
Q 16.703125 13.921875 20.71875 10.15625 
Q 24.75 6.390625 31.78125 6.390625 
Q 38.8125 6.390625 42.859375 10.171875 
Q 46.921875 13.96875 46.921875 20.515625 
Q 46.921875 27.09375 42.890625 30.859375 
Q 38.875 34.625 31.78125 34.625 
z
M 21.921875 38.8125 
Q 15.578125 40.375 12.03125 44.71875 
Q 8.5 49.078125 8.5 55.328125 
Q 8.5 64.0625 14.71875 69.140625 
Q 20.953125 74.21875 31.78125 74.21875 
Q 42.671875 74.21875 48.875 69.140625 
Q 55.078125 64.0625 55.078125 55.328125 
Q 55.078125 49.078125 51.53125 44.71875 
Q 48 40.375 41.703125 38.8125 
Q 48.828125 37.15625 52.796875 32.3125 
Q 56.78125 27.484375 56.78125 20.515625 
Q 56.78125 9.90625 50.3125 4.234375 
Q 43.84375 -1.421875 31.78125 -1.421875 
Q 19.734375 -1.421875 13.25 4.234375 
Q 6.78125 9.90625 6.78125 20.515625 
Q 6.78125 27.484375 10.78125 32.3125 
Q 14.796875 37.15625 21.921875 38.8125 
z
M 18.3125 54.390625 
Q 18.3125 48.734375 21.84375 45.5625 
Q 25.390625 42.390625 31.78125 42.390625 
Q 38.140625 42.390625 41.71875 45.5625 
Q 45.3125 48.734375 45.3125 54.390625 
Q 45.3125 60.0625 41.71875 63.234375 
Q 38.140625 66.40625 31.78125 66.40625 
Q 25.390625 66.40625 21.84375 63.234375 
Q 18.3125 60.0625 18.3125 54.390625 
z
" id="DejaVuSans-38"/>
      </defs>
      <g transform="translate(273.712902 341.398598)rotate(-50)scale(0.1 -0.1)">
       <use xlink:href="#DejaVuSans-30"/>
       <use x="63.623047" xlink:href="#DejaVuSans-30"/>
       <use x="127.246094" xlink:href="#DejaVuSans-2e"/>
       <use x="159.033203" xlink:href="#DejaVuSans-31"/>
       <use x="222.65625" xlink:href="#DejaVuSans-38"/>
      </g>
     </g>
    </g>
    <g id="xtick_20">
     <g id="line2d_30">
      <g>
       <use style="stroke:#000000;stroke-width:0.8;" x="336.6" xlink:href="#m407633620f" y="307.584"/>
      </g>
     </g>
     <g id="text_13">
      <!-- 00.22 -->
      <defs>
       <path d="M 19.1875 8.296875 
L 53.609375 8.296875 
L 53.609375 0 
L 7.328125 0 
L 7.328125 8.296875 
Q 12.9375 14.109375 22.625 23.890625 
Q 32.328125 33.6875 34.8125 36.53125 
Q 39.546875 41.84375 41.421875 45.53125 
Q 43.3125 49.21875 43.3125 52.78125 
Q 43.3125 58.59375 39.234375 62.25 
Q 35.15625 65.921875 28.609375 65.921875 
Q 23.96875 65.921875 18.8125 64.3125 
Q 13.671875 62.703125 7.8125 59.421875 
L 7.8125 69.390625 
Q 13.765625 71.78125 18.9375 73 
Q 24.125 74.21875 28.421875 74.21875 
Q 39.75 74.21875 46.484375 68.546875 
Q 53.21875 62.890625 53.21875 53.421875 
Q 53.21875 48.921875 51.53125 44.890625 
Q 49.859375 40.875 45.40625 35.40625 
Q 44.1875 33.984375 37.640625 27.21875 
Q 31.109375 20.453125 19.1875 8.296875 
z
" id="DejaVuSans-32"/>
      </defs>
      <g transform="translate(329.512902 341.398598)rotate(-50)scale(0.1 -0.1)">
       <use xlink:href="#DejaVuSans-30"/>
       <use x="63.623047" xlink:href="#DejaVuSans-30"/>
       <use x="127.246094" xlink:href="#DejaVuSans-2e"/>
       <use x="159.033203" xlink:href="#DejaVuSans-32"/>
       <use x="222.65625" xlink:href="#DejaVuSans-32"/>
      </g>
     </g>
    </g>
    <g id="xtick_21">
     <g id="line2d_31">
      <g>
       <use style="stroke:#000000;stroke-width:0.8;" x="392.4" xlink:href="#m407633620f" y="307.584"/>
      </g>
     </g>
     <g id="text_14">
      <!-- 00.27 -->
      <defs>
       <path d="M 8.203125 72.90625 
L 55.078125 72.90625 
L 55.078125 68.703125 
L 28.609375 0 
L 18.3125 0 
L 43.21875 64.59375 
L 8.203125 64.59375 
z
" id="DejaVuSans-37"/>
      </defs>
      <g transform="translate(385.312902 341.398598)rotate(-50)scale(0.1 -0.1)">
       <use xlink:href="#DejaVuSans-30"/>
       <use x="63.623047" xlink:href="#DejaVuSans-30"/>
       <use x="127.246094" xlink:href="#DejaVuSans-2e"/>
       <use x="159.033203" xlink:href="#DejaVuSans-32"/>
       <use x="222.65625" xlink:href="#DejaVuSans-37"/>
      </g>
     </g>
    </g>
    <g id="text_15">
     <!-- time (ss.mm) -->
     <defs>
      <path d="M 18.3125 70.21875 
L 18.3125 54.6875 
L 36.8125 54.6875 
L 36.8125 47.703125 
L 18.3125 47.703125 
L 18.3125 18.015625 
Q 18.3125 11.328125 20.140625 9.421875 
Q 21.96875 7.515625 27.59375 7.515625 
L 36.8125 7.515625 
L 36.8125 0 
L 27.59375 0 
Q 17.1875 0 13.234375 3.875 
Q 9.28125 7.765625 9.28125 18.015625 
L 9.28125 47.703125 
L 2.6875 47.703125 
L 2.6875 54.6875 
L 9.28125 54.6875 
L 9.28125 70.21875 
z
" id="DejaVuSans-74"/>
      <path d="M 56.203125 29.59375 
L 56.203125 25.203125 
L 14.890625 25.203125 
Q 15.484375 15.921875 20.484375 11.0625 
Q 25.484375 6.203125 34.421875 6.203125 
Q 39.59375 6.203125 44.453125 7.46875 
Q 49.3125 8.734375 54.109375 11.28125 
L 54.109375 2.78125 
Q 49.265625 0.734375 44.1875 -0.34375 
Q 39.109375 -1.421875 33.890625 -1.421875 
Q 20.796875 -1.421875 13.15625 6.1875 
Q 5.515625 13.8125 5.515625 26.8125 
Q 5.515625 40.234375 12.765625 48.109375 
Q 20.015625 56 32.328125 56 
Q 43.359375 56 49.78125 48.890625 
Q 56.203125 41.796875 56.203125 29.59375 
z
M 47.21875 32.234375 
Q 47.125 39.59375 43.09375 43.984375 
Q 39.0625 48.390625 32.421875 48.390625 
Q 24.90625 48.390625 20.390625 44.140625 
Q 15.875 39.890625 15.1875 32.171875 
z
" id="DejaVuSans-65"/>
      <path d="M 44.28125 53.078125 
L 44.28125 44.578125 
Q 40.484375 46.53125 36.375 47.5 
Q 32.28125 48.484375 27.875 48.484375 
Q 21.1875 48.484375 17.84375 46.4375 
Q 14.5 44.390625 14.5 40.28125 
Q 14.5 37.15625 16.890625 35.375 
Q 19.28125 33.59375 26.515625 31.984375 
L 29.59375 31.296875 
Q 39.15625 29.25 43.1875 25.515625 
Q 47.21875 21.78125 47.21875 15.09375 
Q 47.21875 7.46875 41.1875 3.015625 
Q 35.15625 -1.421875 24.609375 -1.421875 
Q 20.21875 -1.421875 15.453125 -0.5625 
Q 10.6875 0.296875 5.421875 2 
L 5.421875 11.28125 
Q 10.40625 8.6875 15.234375 7.390625 
Q 20.0625 6.109375 24.8125 6.109375 
Q 31.15625 6.109375 34.5625 8.28125 
Q 37.984375 10.453125 37.984375 14.40625 
Q 37.984375 18.0625 35.515625 20.015625 
Q 33.0625 21.96875 24.703125 23.78125 
L 21.578125 24.515625 
Q 13.234375 26.265625 9.515625 29.90625 
Q 5.8125 33.546875 5.8125 39.890625 
Q 5.8125 47.609375 11.28125 51.796875 
Q 16.75 56 26.8125 56 
Q 31.78125 56 36.171875 55.265625 
Q 40.578125 54.546875 44.28125 53.078125 
z
" id="DejaVuSans-73"/>
     </defs>
     <g transform="translate(202.834219 354.333832)scale(0.1 -0.1)">
      <use xlink:href="#DejaVuSans-74"/>
      <use x="39.208984" xlink:href="#DejaVuSans-69"/>
      <use x="66.992188" xlink:href="#DejaVuSans-6d"/>
      <use x="164.404297" xlink:href="#DejaVuSans-65"/>
      <use x="225.927734" xlink:href="#DejaVuSans-20"/>
      <use x="257.714844" xlink:href="#DejaVuSans-28"/>
      <use x="296.728516" xlink:href="#DejaVuSans-73"/>
      <use x="348.828125" xlink:href="#DejaVuSans-73"/>
      <use x="400.927734" xlink:href="#DejaVuSans-2e"/>
      <use x="432.714844" xlink:href="#DejaVuSans-6d"/>
      <use x="530.126953" xlink:href="#DejaVuSans-6d"/>
      <use x="627.539062" xlink:href="#DejaVuSans-29"/>
     </g>
    </g>
   </g>
   <g id="matplotlib.axis_6">
    <g id="ytick_7">
     <g id="line2d_32">
      <g>
       <use style="stroke:#000000;stroke-width:0.8;" x="57.6" xlink:href="#m02ab4f7838" y="304.026353"/>
      </g>
     </g>
     <g id="text_16">
      <!-- 0.0 -->
      <g transform="translate(34.696875 307.825572)scale(0.1 -0.1)">
       <use xlink:href="#DejaVuSans-30"/>
       <use x="63.623047" xlink:href="#DejaVuSans-2e"/>
       <use x="95.410156" xlink:href="#DejaVuSans-30"/>
      </g>
     </g>
    </g>
    <g id="ytick_8">
     <g id="line2d_33">
      <g>
       <use style="stroke:#000000;stroke-width:0.8;" x="57.6" xlink:href="#m02ab4f7838" y="263.858132"/>
      </g>
     </g>
     <g id="text_17">
      <!-- 0.5 -->
      <g transform="translate(34.696875 267.657351)scale(0.1 -0.1)">
       <use xlink:href="#DejaVuSans-30"/>
       <use x="63.623047" xlink:href="#DejaVuSans-2e"/>
       <use x="95.410156" xlink:href="#DejaVuSans-35"/>
      </g>
     </g>
    </g>
    <g id="text_18">
     <!-- condidence -->
     <defs>
      <path d="M 48.78125 52.59375 
L 48.78125 44.1875 
Q 44.96875 46.296875 41.140625 47.34375 
Q 37.3125 48.390625 33.40625 48.390625 
Q 24.65625 48.390625 19.8125 42.84375 
Q 14.984375 37.3125 14.984375 27.296875 
Q 14.984375 17.28125 19.8125 11.734375 
Q 24.65625 6.203125 33.40625 6.203125 
Q 37.3125 6.203125 41.140625 7.25 
Q 44.96875 8.296875 48.78125 10.40625 
L 48.78125 2.09375 
Q 45.015625 0.34375 40.984375 -0.53125 
Q 36.96875 -1.421875 32.421875 -1.421875 
Q 20.0625 -1.421875 12.78125 6.34375 
Q 5.515625 14.109375 5.515625 27.296875 
Q 5.515625 40.671875 12.859375 48.328125 
Q 20.21875 56 33.015625 56 
Q 37.15625 56 41.109375 55.140625 
Q 45.0625 54.296875 48.78125 52.59375 
z
" id="DejaVuSans-63"/>
      <path d="M 30.609375 48.390625 
Q 23.390625 48.390625 19.1875 42.75 
Q 14.984375 37.109375 14.984375 27.296875 
Q 14.984375 17.484375 19.15625 11.84375 
Q 23.34375 6.203125 30.609375 6.203125 
Q 37.796875 6.203125 41.984375 11.859375 
Q 46.1875 17.53125 46.1875 27.296875 
Q 46.1875 37.015625 41.984375 42.703125 
Q 37.796875 48.390625 30.609375 48.390625 
z
M 30.609375 56 
Q 42.328125 56 49.015625 48.375 
Q 55.71875 40.765625 55.71875 27.296875 
Q 55.71875 13.875 49.015625 6.21875 
Q 42.328125 -1.421875 30.609375 -1.421875 
Q 18.84375 -1.421875 12.171875 6.21875 
Q 5.515625 13.875 5.515625 27.296875 
Q 5.515625 40.765625 12.171875 48.375 
Q 18.84375 56 30.609375 56 
z
" id="DejaVuSans-6f"/>
      <path d="M 54.890625 33.015625 
L 54.890625 0 
L 45.90625 0 
L 45.90625 32.71875 
Q 45.90625 40.484375 42.875 44.328125 
Q 39.84375 48.1875 33.796875 48.1875 
Q 26.515625 48.1875 22.3125 43.546875 
Q 18.109375 38.921875 18.109375 30.90625 
L 18.109375 0 
L 9.078125 0 
L 9.078125 54.6875 
L 18.109375 54.6875 
L 18.109375 46.1875 
Q 21.34375 51.125 25.703125 53.5625 
Q 30.078125 56 35.796875 56 
Q 45.21875 56 50.046875 50.171875 
Q 54.890625 44.34375 54.890625 33.015625 
z
" id="DejaVuSans-6e"/>
     </defs>
     <g transform="translate(28.617187 297.23582)rotate(-90)scale(0.1 -0.1)">
      <use xlink:href="#DejaVuSans-63"/>
      <use x="54.980469" xlink:href="#DejaVuSans-6f"/>
      <use x="116.162109" xlink:href="#DejaVuSans-6e"/>
      <use x="179.541016" xlink:href="#DejaVuSans-64"/>
      <use x="243.017578" xlink:href="#DejaVuSans-69"/>
      <use x="270.800781" xlink:href="#DejaVuSans-64"/>
      <use x="334.277344" xlink:href="#DejaVuSans-65"/>
      <use x="395.800781" xlink:href="#DejaVuSans-6e"/>
      <use x="459.179688" xlink:href="#DejaVuSans-63"/>
      <use x="514.160156" xlink:href="#DejaVuSans-65"/>
     </g>
    </g>
   </g>
   <g id="line2d_34">
    <path clip-path="url(#p58639daaea)" d="M 57.6 304.026353 
L 71.8848 304.026353 
L 86.1696 304.026353 
L 100.4544 289.156459 
L 114.7392 248.288324 
L 129.024 236.932564 
L 143.3088 243.286014 
L 157.5936 248.064997 
L 171.8784 252.470338 
L 186.1632 258.053613 
L 200.448 257.131937 
L 214.7328 256.12542 
L 229.0176 287.589509 
L 243.3024 282.200692 
L 257.5872 279.803133 
L 271.872 282.418144 
L 286.1568 278.353289 
L 300.4416 279.577914 
L 314.7264 280.202756 
L 329.0112 282.170243 
L 343.296 282.440904 
L 357.5808 282.649698 
L 371.8656 284.836064 
L 386.1504 232.873412 
L 400.4352 285.390976 
L 414.72 285.132913 
" style="fill:none;stroke:#1f77b4;stroke-linecap:square;stroke-width:1.5;"/>
   </g>
   <g id="line2d_35">
    <path clip-path="url(#p58639daaea)" d="M 57.6 239.7572 
L 71.8848 239.7572 
L 86.1696 239.7572 
L 100.4544 239.7572 
L 114.7392 239.7572 
L 129.024 239.7572 
L 143.3088 239.7572 
L 157.5936 239.7572 
L 171.8784 239.7572 
L 186.1632 239.7572 
L 200.448 239.7572 
L 214.7328 239.7572 
L 229.0176 239.7572 
L 243.3024 239.7572 
L 257.5872 239.7572 
L 271.872 239.7572 
L 286.1568 239.7572 
L 300.4416 239.7572 
L 314.7264 239.7572 
L 329.0112 239.7572 
L 343.296 239.7572 
L 357.5808 239.7572 
L 371.8656 239.7572 
L 386.1504 239.7572 
L 400.4352 239.7572 
L 414.72 239.7572 
" style="fill:none;stroke:#ff7f0e;stroke-linecap:square;stroke-width:1.5;"/>
   </g>
   <g id="patch_13">
    <path d="M 57.6 307.584 
L 57.6 229.315765 
" style="fill:none;stroke:#000000;stroke-linecap:square;stroke-linejoin:miter;stroke-width:0.8;"/>
   </g>
   <g id="patch_14">
    <path d="M 414.72 307.584 
L 414.72 229.315765 
" style="fill:none;stroke:#000000;stroke-linecap:square;stroke-linejoin:miter;stroke-width:0.8;"/>
   </g>
   <g id="patch_15">
    <path d="M 57.6 307.584 
L 414.72 307.584 
" style="fill:none;stroke:#000000;stroke-linecap:square;stroke-linejoin:miter;stroke-width:0.8;"/>
   </g>
   <g id="patch_16">
    <path d="M 57.6 229.315765 
L 414.72 229.315765 
" style="fill:none;stroke:#000000;stroke-linecap:square;stroke-linejoin:miter;stroke-width:0.8;"/>
   </g>
  </g>
 </g>
 <defs>
  <clipPath id="p0cc2467218">
   <rect height="78.268235" width="357.12" x="57.6" y="41.472"/>
  </clipPath>
  <clipPath id="p82b2bc3ce7">
   <rect height="78.268235" width="357.12" x="57.6" y="135.393882"/>
  </clipPath>
  <clipPath id="p58639daaea">
   <rect height="78.268235" width="357.12" x="57.6" y="229.315765"/>
  </clipPath>
 </defs>
</svg>
